<svg width="48" height="48" viewBox="0 0 48 48" fill="none" xmlns="http://www.w3.org/2000/svg">
  <g stroke="#2c2a26" stroke-width="2.4" stroke-linecap="round" stroke-linejoin="round">
    <path d="M18 24h12" stroke-width="3" />
    <path d="M9 17.5c1.6-.3 2.6.6 2.6 6.5S10.6 30.3 9 30c-1.6-.3-2.4-2-2.4-6S7.4 17.8 9 17.5Z" fill="#5dcaa5" />
    <path d="M14.5 19c1.4 0 2 1.2 2 5s-.6 5-2 5-2-1.2-2-5 .6-5 2-5Z" fill="#9fe1cb" />
    <path d="M39 17.5c-1.6-.3-2.6.6-2.6 6.5s1 6.3 2.6 6c1.6-.3 2.4-2 2.4-6s-.8-6.2-2.4-6.5Z" fill="#5dcaa5" />
    <path d="M33.5 19c-1.4 0-2 1.2-2 5s.6 5 2 5 2-1.2 2-5-.6-5-2-5Z" fill="#9fe1cb" />
  </g>
</svg>
