<svg width="48" height="48" viewBox="0 0 48 48" fill="none" xmlns="http://www.w3.org/2000/svg">
  <g stroke="#2c2a26" stroke-width="2.4" stroke-linecap="round" stroke-linejoin="round">
    <path d="M12 9c-1 2 1 3 0 5" stroke-width="2" />
    <path d="M19 7c-1 2.5 1.2 3.4 0 6" stroke-width="2" />
    <path d="M26 9c-1 2 1 3 0 5" stroke-width="2" />
    <path d="M7 22h34c-.5 9-7.5 15.5-17 15.5S7.5 31 7 22Z" fill="#f0997b" />
    <path d="M5 21.5c0-1.4 1.2-2.2 3-2.2h32c1.8 0 3 .8 3 2.2 0 1.3-1.2 2.1-3 2.1H8c-1.8 0-3-.8-3-2.1Z" fill="#faeeda" />
    <path d="M13 28c3 2 8 2.5 11 .6" stroke-width="1.8" />
  </g>
</svg>
