<svg width="48" height="48" viewBox="0 0 48 48" fill="none" xmlns="http://www.w3.org/2000/svg">
  <g stroke="#2c2a26" stroke-width="2.4" stroke-linecap="round" stroke-linejoin="round">
    <path d="M40 25c0-6-6-10-14-10-3 0-5.6.6-7.7 1.7L13 14l1.3 5.2C11.6 21.4 10 24 10 27c0 3 1.6 5.4 4 7l1 5h4l1-2.7c1.2.3 2.6.5 4 .5s2.8-.2 4-.5L33 39h4l1-5c1.4-1 2-2.2 2-4Z" fill="#ed93b1" />
    <path d="M20 24.5h9" stroke-width="2" />
    <circle cx="34" cy="24" r="1.5" fill="#2c2a26" stroke="none" />
    <path d="M24 15c.3-2 2-3 4-2.6" stroke-width="2" />
  </g>
</svg>
