<svg width="48" height="48" viewBox="0 0 48 48" fill="none" xmlns="http://www.w3.org/2000/svg">
  <g stroke="#2c2a26" stroke-width="2.4" stroke-linecap="round" stroke-linejoin="round">
    <path d="M16 16c-4 3-8 8-8 15 0 5 4 8 16 8s16-3 16-8c0-7-4-12-8-15Z" fill="#ef9f27" />
    <path d="M16 16c0-3 3-6 8-6s8 3 8 6c-2.5 1.6-5.2 2.4-8 2.4S18.5 17.6 16 16Z" fill="#fbe4bd" />
    <path d="M20 27c0 2 1.8 3 4 3s4-1 4-3-1.8-2.4-4-3c-2-.5-4-1-4-3s1.8-3 4-3 4 1 4 3" stroke-width="2" />
    <path d="M24 15v18" stroke-width="1.8" />
  </g>
</svg>
