<svg width="48" height="48" viewBox="0 0 48 48" fill="none" xmlns="http://www.w3.org/2000/svg">
  <g stroke="#2c2a26" stroke-width="2.4" stroke-linecap="round" stroke-linejoin="round">
    <path d="M6 30c-.3-4 .5-6 2.5-6.3 2-3.2 3.7-6.4 6-7.4 4-1.6 12.5-1.6 16.8.2 2.2.9 4.4 4.6 6 7.2 2.2.4 3 2.2 2.7 6.3" fill="#85b7eb" />
    <path d="M13 17.5c-1.2 2-2.2 4-3 6.2 4 .6 9 .8 13.5.6" stroke-width="1.8" fill="#b5d4f4" />
    <path d="M25.5 17.2c1.8.1 4 .3 5.4.9 1.3.9 2.6 3.4 3.5 5.7-2.8.4-5.9.6-8.9.6Z" stroke-width="1.8" fill="#b5d4f4" />
    <path d="M6 31.5h6M36 31.5h6" />
    <circle cx="15.5" cy="32" r="4.2" fill="#faeeda" />
    <circle cx="32.5" cy="32" r="4.2" fill="#faeeda" />
  </g>
</svg>
